<svg width="911.875" height="482.305" viewBox="0 0 911.875 482.305"
    xmlns="http://www.w3.org/2000/svg">
    <!-- Generated using https://danmarshall.github.io/google-font-to-svg-path/ font-size 512	-->
    <g id="svgGroup" stroke-linecap="round" fill-rule="evenodd" font-size="9pt" stroke="#06bbfa"
        stroke-width="0.25mm" fill="#06bbfa" style="stroke:#06bbfa;stroke-width:0.25mm;fill:#06bbfa">
        <path
            d="M 221.186 124.417 L 221.186 482.305 L 162.818 471.553 L 162.818 336.897 Q 152.578 354.305 135.682 363.009 Q 118.786 371.713 94.21 371.713 Q 70.146 371.713 52.482 362.753 Q 34.818 353.793 23.042 337.153 Q 11.266 320.513 5.634 296.961 Q 0.002 273.409 0.002 244.737 Q 0.002 215.553 8.962 190.721 Q 17.922 165.889 34.05 147.969 Q 50.178 130.049 72.706 119.809 Q 95.234 109.569 122.37 109.569 Q 137.73 109.569 154.882 112.129 Q 172.034 114.689 186.882 117.249 Q 203.778 120.321 221.186 124.417 Z M 162.818 229.889 Q 162.818 248.833 158.21 267.009 Q 153.602 285.185 145.666 299.265 Q 137.73 313.345 126.978 321.793 Q 116.226 330.241 103.938 330.241 Q 90.114 330.241 81.922 322.817 Q 73.73 315.393 69.378 302.849 Q 65.026 290.305 64.002 273.921 Q 62.978 257.537 62.978 239.617 Q 62.978 220.161 66.05 203.777 Q 69.122 187.393 76.802 175.617 Q 84.482 163.841 97.026 157.185 Q 109.57 150.529 129.026 150.529 Q 137.218 150.529 147.458 152.577 Q 157.698 154.625 162.818 156.161 L 162.818 229.889 Z"
            id="0" vector-effect="non-scaling-stroke" />
        <path
            d="M 439.298 238.593 L 439.298 113.665 L 497.666 113.665 L 497.666 245.249 Q 497.666 275.969 501.506 296.705 Q 505.346 317.441 509.954 330.241 Q 515.586 345.601 522.242 354.305 L 476.674 372.737 Q 470.53 367.105 465.41 358.401 Q 461.314 351.233 456.962 340.737 Q 452.61 330.241 451.074 315.905 Q 437.25 346.113 412.162 358.913 Q 387.074 371.713 359.938 371.713 Q 319.49 371.713 302.338 348.161 Q 285.186 324.609 285.186 283.649 L 285.186 113.665 L 343.554 113.665 L 343.554 282.625 Q 343.554 304.129 351.234 316.417 Q 358.914 328.705 377.346 328.705 Q 388.61 328.705 399.618 322.305 Q 410.626 315.905 419.586 304.129 Q 428.546 292.353 433.922 275.713 Q 439.298 259.073 439.298 238.593 Z"
            id="1" vector-effect="non-scaling-stroke" />
        <path
            d="M 566.786 312.833 L 566.786 113.665 L 625.154 113.665 L 625.154 307.713 Q 625.154 319.489 628.738 323.585 Q 632.322 327.681 639.49 327.681 L 643.842 327.681 Q 646.146 327.681 648.194 327.169 Q 650.242 327.169 652.802 326.657 L 658.946 363.521 Q 655.362 365.569 649.73 367.105 Q 645.122 368.641 638.21 369.665 Q 631.298 370.689 622.594 370.689 Q 595.458 370.689 581.122 354.561 Q 566.786 338.433 566.786 312.833 Z M 596.994 0.001 Q 613.378 0.001 622.082 9.729 Q 630.786 19.457 630.786 34.817 Q 630.786 50.177 621.826 60.417 Q 612.866 70.657 595.458 70.657 Q 579.074 70.657 570.114 60.673 Q 561.154 50.689 561.154 36.353 Q 561.154 20.481 570.114 10.241 Q 579.074 0.001 596.994 0.001 Z"
            id="2" vector-effect="non-scaling-stroke" />
        <path
            d="M 847.362 113.665 L 906.754 113.665 L 907.778 117.761 Q 908.29 122.369 909.314 129.793 Q 910.338 137.217 911.106 146.689 Q 911.874 156.161 911.874 165.889 Q 911.874 222.721 903.426 261.889 Q 894.978 301.057 877.826 325.377 Q 860.674 349.697 834.306 360.449 Q 807.938 371.201 772.098 371.201 Q 731.65 371.201 714.498 347.905 Q 697.346 324.609 697.346 283.649 L 697.346 113.665 L 755.714 113.665 L 755.714 282.113 Q 755.714 303.617 763.394 316.929 Q 771.074 330.241 789.506 330.241 Q 807.938 330.241 820.226 316.417 Q 832.514 302.593 839.682 280.321 Q 846.85 258.049 849.922 229.633 Q 852.994 201.217 852.994 172.033 Q 852.994 161.281 852.226 150.785 Q 851.458 140.289 850.178 132.097 Q 848.898 123.905 848.386 118.785 L 847.362 113.665 Z"
            id="3" vector-effect="non-scaling-stroke" />
    </g>
</svg>