<svg width="1600" height="512" viewBox="0 0 1600 512" xmlns="http://www.w3.org/2000/svg"><path fill="#097c81" d="M256 10 56 141v232l200 129 99-61-44-34-28 19-51-1-124-80V168l148-96 151 97v167l43 39 7-7V139z"/><path fill="#097c81" d="M283 426V237l47 18-74-120-72 119 48-15v186z"/><path fill="#06bbfa" d="M257 163v208l13-151 28 9zm43 192v23l127 91zm0-43v25l188 139zm0-43v27l173 125z"/><path d="M751.186 139.417v357.888l-58.368-10.752V351.897q-10.24 17.408-27.136 26.112t-41.472 8.704q-24.064 0-41.728-8.96t-29.44-25.6-17.408-40.192-5.632-52.224q0-29.184 8.96-54.016t25.088-42.752 38.656-28.16 49.664-10.24q15.36 0 32.512 2.56t32 5.12q16.896 3.072 34.304 7.168Zm-58.368 105.472q0 18.944-4.608 37.12t-12.544 32.256-18.688 22.528-23.04 8.448q-13.824 0-22.016-7.424t-12.544-19.968-5.376-28.928-1.024-34.304q0-19.456 3.072-35.84t10.752-28.16 20.224-18.432 32-6.656q8.192 0 18.432 2.048t15.36 3.584zm276.48 8.704V128.665h58.368v131.584q0 30.72 3.84 51.456t8.448 33.536q5.632 15.36 12.288 24.064l-45.568 18.432q-6.144-5.632-11.264-14.336-4.096-7.168-8.448-17.664t-5.888-24.832q-13.824 30.208-38.912 43.008t-52.224 12.8q-40.448 0-57.6-23.552t-17.152-64.512V128.665h58.368v168.96q0 21.504 7.68 33.792t26.112 12.288q11.264 0 22.272-6.4t19.968-18.176 14.336-28.416 5.376-37.12Zm127.488 74.24V128.665h58.368v194.048q0 11.776 3.584 15.872t10.752 4.096h4.352q2.304 0 4.352-.512 2.048 0 4.608-.512l6.144 36.864q-3.584 2.048-9.216 3.584-4.608 1.536-11.52 2.56t-15.616 1.024q-27.136 0-41.472-16.128t-14.336-41.728Zm30.208-312.832q16.384 0 25.088 9.728t8.704 25.088-8.96 25.6-26.368 10.24q-16.384 0-25.344-9.984t-8.96-24.32q0-15.872 8.96-26.112t26.88-10.24Zm250.368 113.664h59.392l1.024 4.096q.512 4.608 1.536 12.032t1.792 16.896.768 19.2q0 56.832-8.448 96t-25.6 63.488-43.52 35.072-62.208 10.752q-40.448 0-57.6-23.296t-17.152-64.256V128.665h58.368v168.448q0 21.504 7.68 34.816t26.112 13.312 30.72-13.824 19.456-36.096 10.24-50.688 3.072-57.6q0-10.752-.768-21.248t-2.048-18.688-1.792-13.312z" vector-effect="non-scaling-stroke" stroke-linecap="round" fill-rule="evenodd" font-size="12" stroke="#06bbfa" stroke-width=".945" fill="#06bbfa" style="stroke:#06bbfa;stroke-width:.25mm;fill:#06bbfa"/><path d="M800 468.02v-47.39q.49 0 2.24-.035t3.92-.035 4.34-.035 3.57-.035q8.54 0 12.6 3.815t4.06 10.465q0 3.22-1.12 5.915t-3.325 4.655-5.46 3.045-7.595 1.085h-4.9v18.55zm8.33-41.51v16.73h5.39q4.41 0 6.3-2.31t1.89-5.88q0-1.61-.42-3.15t-1.435-2.765-2.73-1.96-4.305-.735h-2.695q-1.155 0-1.995.07Zm36.12 41.51v-18.13l-14.7-29.26h9.03l9.94 21.49 10.15-21.49h8.82l-14.91 29.61v17.78zm23.94-47.39h33.04l-1.05 6.3h-11.76v41.09h-8.26v-41.09h-11.97zm66.57 47.39v-21.56h-19.53v21.56h-8.33v-47.39h8.33v19.74h19.53v-19.74h8.33v47.39zm37.1-48.02q5.25 0 8.96 1.68t6.125 4.76 3.535 7.525 1.12 9.975q0 5.46-1.225 9.975t-3.78 7.735-6.44 5.005-9.205 1.785q-5.25 0-8.995-1.575t-6.16-4.62-3.535-7.385-1.12-9.94q0-5.46 1.225-10.045t3.78-7.91 6.475-5.145 9.24-1.82Zm-.98 6.44q-3.08 0-5.11 1.365t-3.29 3.745-1.785 5.6-.525 7q0 3.57.49 6.79t1.785 5.67 3.57 3.92 5.915 1.47q3.01 0 5.075-1.33t3.325-3.64 1.785-5.495.525-6.895q0-3.57-.49-6.86t-1.785-5.81-3.57-4.025-5.915-1.505Zm56.98 18.97-.21-24.78h8.33v47.46h-6.93l-15.96-24.92q-1.33-2.03-2.905-4.585t-2.975-4.725q.21 2.24.385 4.69t.175 4.69l.21 24.78h-8.33v-47.53h6.51l16.45 24.64q1.4 2.03 2.835 4.305t2.835 4.375q-.14-2.24-.28-4.515t-.14-3.885Zm31.57-24.78h33.04l-1.05 6.3h-11.76v41.09h-8.26v-41.09h-11.97zm29.26 47.39 18.2-47.39h6.58l18.27 47.39h-8.89l-4.34-12.39h-17.08l-4.48 12.39zm14.98-18.55h12.67q-2.24-6.3-3.85-11.445t-2.45-8.085q-.98 3.15-2.59 8.26t-3.78 11.27Zm59.99-25.76-3.43 6.02-.91-.49q-.91-.49-2.38-1.12t-3.22-1.12-3.36-.49q-2.52 0-4.375 1.19t-1.855 3.71q0 3.15 2.03 5.145t6.37 3.675q2.8 1.12 5.005 2.345t3.745 2.835 2.345 3.71.805 5.04q0 2.66-1.015 5.25t-3.01 4.585-4.935 3.22-6.79 1.225q-2.73 0-5.18-.56t-4.445-1.295-3.43-1.505-2.135-1.19l2.94-6.44 1.26.7q1.26.7 3.08 1.54t3.85 1.54 3.5.7q3.71 0 5.53-1.82t1.82-5.11q0-1.54-.49-2.695t-1.4-1.995-2.205-1.505-2.905-1.295q-3.15-1.33-5.635-2.66t-4.235-3.045-2.66-3.92-.91-5.285q0-2.59 1.12-4.865t3.08-3.99 4.69-2.73 6.02-1.015q2.45 0 4.69.455t4.095 1.05 3.15 1.225 1.785.98Zm27.86 19.67 17.22 24.64h-9.66l-18.06-25.62v-.49q6.44-2.38 9.975-7.805t5.425-13.475h8.19q-1.12 5.25-2.485 8.925t-2.975 6.23-3.535 4.34-4.095 3.255Zm-19.74 24.64v-47.39h8.33v47.39zm86.59-44.31-3.43 6.02-.91-.49q-.91-.49-2.38-1.12t-3.22-1.12-3.36-.49q-2.52 0-4.375 1.19t-1.855 3.71q0 3.15 2.03 5.145t6.37 3.675q2.8 1.12 5.005 2.345t3.745 2.835 2.345 3.71.805 5.04q0 2.66-1.015 5.25t-3.01 4.585-4.935 3.22-6.79 1.225q-2.73 0-5.18-.56t-4.445-1.295-3.43-1.505-2.135-1.19l2.94-6.44 1.26.7q1.26.7 3.08 1.54t3.85 1.54 3.5.7q3.71 0 5.53-1.82t1.82-5.11q0-1.54-.49-2.695t-1.4-1.995-2.205-1.505-2.905-1.295q-3.15-1.33-5.635-2.66t-4.235-3.045-2.66-3.92-.91-5.285q0-2.59 1.12-4.865t3.08-3.99 4.69-2.73 6.02-1.015q2.45 0 4.69.455t4.095 1.05 3.15 1.225 1.785.98Zm38.43 1.33-4.27 5.11q-1.68-1.82-3.535-2.765t-4.305-.945q-3.01 0-5.075 1.365t-3.325 3.78-1.82 5.635-.56 6.93.525 6.93 1.82 5.67 3.5 3.85 5.565 1.4q1.61 0 3.08-.28t2.695-.595 2.03-.595 1.015-.35l1.96 5.88-.91.35q-.91.35-2.555.805t-3.92.84-5.005.385q-9.38 0-14.105-5.985t-4.725-17.535q0-5.53 1.26-10.115t3.815-7.875 6.44-5.11 9.135-1.82q4.2 0 6.895 1.54t4.375 3.5Zm34.16 42.98v-21.56h-19.53v21.56h-8.33v-47.39h8.33v19.74h19.53v-19.74h8.33v47.39zm18.13 0v-47.39h28.14v6.3h-19.81v13.23h16.31l-1.05 6.37h-15.26v15.19h20.86v6.3zm35.91 0v-47.39q.49 0 2.1-.035t3.64-.035 4.2-.035 3.78-.035q11.9 0 17.64 5.915t5.74 17.605-5.88 17.92-18.41 6.23q-2.17 0-4.235-.035t-3.78-.035-2.975-.035-1.82-.035Zm8.33-41.23v35.07q.77.07 1.995.07h3.535q7.35 0 10.78-4.305t3.43-12.845q0-4.06-.805-7.385t-2.66-5.705-4.76-3.675-7.105-1.295q-1.61 0-2.695.035t-1.715.035Zm35.98-6.16h8.26v29.33q0 6.51 2.73 9.275t7.42 2.765q4.76 0 7.035-3.185t2.275-8.855v-29.33h8.33v29.96q0 3.64-.945 6.86t-3.115 5.67-5.74 3.885-8.75 1.435q-4.97 0-8.295-1.435t-5.39-3.885-2.94-5.67-.875-6.86zm45.15 47.39v-47.39h8.33v41.09h17.71v6.3zm30.94 0v-47.39h28.14v6.3h-19.81v13.23h16.31l-1.05 6.37h-15.26v15.19h20.86v6.3zm35.91 0v-47.39q.49 0 2.24-.035t3.92-.035 4.34-.035 3.57-.035q8.68 0 12.67 3.395t3.99 9.555q0 4.06-2.03 7.21t-6.65 4.55q1.96 1.12 3.5 3.08t3.01 4.795 3.01 6.58 3.57 8.365h-9.03q-2.38-5.53-4.165-9.45t-3.465-6.37-3.605-3.57-4.515-1.12h-2.03v20.51zm8.33-41.58v14.98h5.39q3.92 0 6.055-1.75t2.135-5.18q0-1.54-.42-3.01t-1.435-2.59-2.73-1.785-4.305-.665z" vector-effect="non-scaling-stroke" font-size="12" fill="#097c81" style="stroke:#097c81;stroke-width:0;fill:#097c81"/></svg>