<svg width="1600" height="512" viewBox="0 0 1600 512" xmlns="http://www.w3.org/2000/svg">
  <!-- Logo -->
  <g id="logo" transform="translate(0 0)">
<!--Hexagon shell with bottom-right cutout for arrows-->
    <polygon points="
      256,10 56,141 56,373 256,502 355,441 311,407 283,426 
      232,425 108,345 108,168 256,72 407,169 407,336 450,375 
      457,368 457,139 256,10
    " fill="#097c81"/>
<!--center arrow-->
    <polygon points="283,426 283,237 330,255 256,135 184,254 232,239 232,425" fill="#097c81"/>
<!--center inner arrow-->
    <polygon points="257,163 257,371 270,220 298,229" fill="#06bbfa"/>
    <g fill="#06bbfa">
      <polygon points="300,355 300,378 427,469"/>
      <polygon points="300,312 300,337 488,476"/>
      <polygon points="300,269 300,296 473,421"/>
    </g>
  </g>
<!-- quiv Text -->
  <g transform="translate(530 15)" id="svgGroup" stroke-linecap="round" fill-rule="evenodd" font-size="9pt" stroke="#06bbfa" stroke-width="0.25mm" fill="#06bbfa" style="stroke:#06bbfa;stroke-width:0.25mm;fill:#06bbfa">
<!--Generated using https://danmarshall.github.io/google-font-to-svg-path/ font-size 512-->
    <path d="M 221.186 124.417 L 221.186 482.305 L 162.818 471.553 L 162.818 336.897 Q 152.578 354.305 135.682 363.009 Q 118.786 371.713 94.21 371.713 Q 70.146 371.713 52.482 362.753 Q 34.818 353.793 23.042 337.153 Q 11.266 320.513 5.634 296.961 Q 0.002 273.409 0.002 244.737 Q 0.002 215.553 8.962 190.721 Q 17.922 165.889 34.05 147.969 Q 50.178 130.049 72.706 119.809 Q 95.234 109.569 122.37 109.569 Q 137.73 109.569 154.882 112.129 Q 172.034 114.689 186.882 117.249 Q 203.778 120.321 221.186 124.417 Z M 162.818 229.889 Q 162.818 248.833 158.21 267.009 Q 153.602 285.185 145.666 299.265 Q 137.73 313.345 126.978 321.793 Q 116.226 330.241 103.938 330.241 Q 90.114 330.241 81.922 322.817 Q 73.73 315.393 69.378 302.849 Q 65.026 290.305 64.002 273.921 Q 62.978 257.537 62.978 239.617 Q 62.978 220.161 66.05 203.777 Q 69.122 187.393 76.802 175.617 Q 84.482 163.841 97.026 157.185 Q 109.57 150.529 129.026 150.529 Q 137.218 150.529 147.458 152.577 Q 157.698 154.625 162.818 156.161 L 162.818 229.889 Z" id="0" vector-effect="non-scaling-stroke"/>
    <path d="M 439.298 238.593 L 439.298 113.665 L 497.666 113.665 L 497.666 245.249 Q 497.666 275.969 501.506 296.705 Q 505.346 317.441 509.954 330.241 Q 515.586 345.601 522.242 354.305 L 476.674 372.737 Q 470.53 367.105 465.41 358.401 Q 461.314 351.233 456.962 340.737 Q 452.61 330.241 451.074 315.905 Q 437.25 346.113 412.162 358.913 Q 387.074 371.713 359.938 371.713 Q 319.49 371.713 302.338 348.161 Q 285.186 324.609 285.186 283.649 L 285.186 113.665 L 343.554 113.665 L 343.554 282.625 Q 343.554 304.129 351.234 316.417 Q 358.914 328.705 377.346 328.705 Q 388.61 328.705 399.618 322.305 Q 410.626 315.905 419.586 304.129 Q 428.546 292.353 433.922 275.713 Q 439.298 259.073 439.298 238.593 Z" id="1" vector-effect="non-scaling-stroke"/>
    <path d="M 566.786 312.833 L 566.786 113.665 L 625.154 113.665 L 625.154 307.713 Q 625.154 319.489 628.738 323.585 Q 632.322 327.681 639.49 327.681 L 643.842 327.681 Q 646.146 327.681 648.194 327.169 Q 650.242 327.169 652.802 326.657 L 658.946 363.521 Q 655.362 365.569 649.73 367.105 Q 645.122 368.641 638.21 369.665 Q 631.298 370.689 622.594 370.689 Q 595.458 370.689 581.122 354.561 Q 566.786 338.433 566.786 312.833 Z M 596.994 0.001 Q 613.378 0.001 622.082 9.729 Q 630.786 19.457 630.786 34.817 Q 630.786 50.177 621.826 60.417 Q 612.866 70.657 595.458 70.657 Q 579.074 70.657 570.114 60.673 Q 561.154 50.689 561.154 36.353 Q 561.154 20.481 570.114 10.241 Q 579.074 0.001 596.994 0.001 Z" id="2" vector-effect="non-scaling-stroke"/>
    <path d="M 847.362 113.665 L 906.754 113.665 L 907.778 117.761 Q 908.29 122.369 909.314 129.793 Q 910.338 137.217 911.106 146.689 Q 911.874 156.161 911.874 165.889 Q 911.874 222.721 903.426 261.889 Q 894.978 301.057 877.826 325.377 Q 860.674 349.697 834.306 360.449 Q 807.938 371.201 772.098 371.201 Q 731.65 371.201 714.498 347.905 Q 697.346 324.609 697.346 283.649 L 697.346 113.665 L 755.714 113.665 L 755.714 282.113 Q 755.714 303.617 763.394 316.929 Q 771.074 330.241 789.506 330.241 Q 807.938 330.241 820.226 316.417 Q 832.514 302.593 839.682 280.321 Q 846.85 258.049 849.922 229.633 Q 852.994 201.217 852.994 172.033 Q 852.994 161.281 852.226 150.785 Q 851.458 140.289 850.178 132.097 Q 848.898 123.905 848.386 118.785 L 847.362 113.665 Z" id="3" vector-effect="non-scaling-stroke"/>
  </g>
  <!-- Subtext -->
  <g transform="translate(800 420)" id="svgGroup" stroke-linecap="round" fill-rule="nonzero" font-size="9pt" stroke="#097c81" stroke-width="0" fill="#097c81" style="stroke:#097c81;stroke-width:0;fill:#097c81">
  <!--Generated using https://danmarshall.github.io/google-font-to-svg-path/ font-size 512-->
    <path d="M 0 48.02 L 0 0.63 Q 0.49 0.63 2.24 0.595 Q 3.99 0.56 6.16 0.56 Q 8.33 0.56 10.5 0.525 Q 12.67 0.49 14.07 0.49 Q 22.61 0.49 26.67 4.305 Q 30.73 8.12 30.73 14.77 Q 30.73 17.99 29.61 20.685 Q 28.49 23.38 26.285 25.34 Q 24.08 27.3 20.825 28.385 Q 17.57 29.47 13.23 29.47 L 8.33 29.47 L 8.33 48.02 L 0 48.02 Z M 8.33 6.51 L 8.33 23.24 L 13.72 23.24 Q 18.13 23.24 20.02 20.93 Q 21.91 18.62 21.91 15.05 Q 21.91 13.44 21.49 11.9 Q 21.07 10.36 20.055 9.135 Q 19.04 7.91 17.325 7.175 Q 15.61 6.44 13.02 6.44 L 10.325 6.44 Q 9.17 6.44 8.33 6.51 Z" id="0" vector-effect="non-scaling-stroke"/>
    <path d="M 44.45 48.02 L 44.45 29.89 L 29.75 0.63 L 38.78 0.63 L 48.72 22.12 L 58.87 0.63 L 67.69 0.63 L 52.78 30.24 L 52.78 48.02 L 44.45 48.02 Z" id="1" vector-effect="non-scaling-stroke"/>
    <path d="M 68.39 0.63 L 101.43 0.63 L 100.38 6.93 L 88.62 6.93 L 88.62 48.02 L 80.36 48.02 L 80.36 6.93 L 68.39 6.93 L 68.39 0.63 Z" id="2" vector-effect="non-scaling-stroke"/>
    <path d="M 134.96 48.02 L 134.96 26.46 L 115.43 26.46 L 115.43 48.02 L 107.1 48.02 L 107.1 0.63 L 115.43 0.63 L 115.43 20.37 L 134.96 20.37 L 134.96 0.63 L 143.29 0.63 L 143.29 48.02 L 134.96 48.02 Z" id="3" vector-effect="non-scaling-stroke"/>
    <path d="M 172.06 0 Q 177.31 0 181.02 1.68 Q 184.73 3.36 187.145 6.44 Q 189.56 9.52 190.68 13.965 Q 191.8 18.41 191.8 23.94 Q 191.8 29.4 190.575 33.915 Q 189.35 38.43 186.795 41.65 Q 184.24 44.87 180.355 46.655 Q 176.47 48.44 171.15 48.44 Q 165.9 48.44 162.155 46.865 Q 158.41 45.29 155.995 42.245 Q 153.58 39.2 152.46 34.86 Q 151.34 30.52 151.34 24.92 Q 151.34 19.46 152.565 14.875 Q 153.79 10.29 156.345 6.965 Q 158.9 3.64 162.82 1.82 Q 166.74 0 172.06 0 Z M 171.08 6.44 Q 168 6.44 165.97 7.805 Q 163.94 9.17 162.68 11.55 Q 161.42 13.93 160.895 17.15 Q 160.37 20.37 160.37 24.15 Q 160.37 27.72 160.86 30.94 Q 161.35 34.16 162.645 36.61 Q 163.94 39.06 166.215 40.53 Q 168.49 42 172.13 42 Q 175.14 42 177.205 40.67 Q 179.27 39.34 180.53 37.03 Q 181.79 34.72 182.315 31.535 Q 182.84 28.35 182.84 24.64 Q 182.84 21.07 182.35 17.78 Q 181.86 14.49 180.565 11.97 Q 179.27 9.45 176.995 7.945 Q 174.72 6.44 171.08 6.44 Z" id="4" vector-effect="non-scaling-stroke"/>
    <path d="M 228.06 25.41 L 227.85 0.63 L 236.18 0.63 L 236.18 48.09 L 229.25 48.09 L 213.29 23.17 Q 211.96 21.14 210.385 18.585 Q 208.81 16.03 207.41 13.86 Q 207.62 16.1 207.795 18.55 Q 207.97 21 207.97 23.24 L 208.18 48.02 L 199.85 48.02 L 199.85 0.49 L 206.36 0.49 L 222.81 25.13 Q 224.21 27.16 225.645 29.435 Q 227.08 31.71 228.48 33.81 Q 228.34 31.57 228.2 29.295 Q 228.06 27.02 228.06 25.41 Z" id="5" vector-effect="non-scaling-stroke"/>
    <path d="M 259.63 0.63 L 292.67 0.63 L 291.62 6.93 L 279.86 6.93 L 279.86 48.02 L 271.6 48.02 L 271.6 6.93 L 259.63 6.93 L 259.63 0.63 Z" id="7" vector-effect="non-scaling-stroke"/>
    <path d="M 288.89 48.02 L 307.09 0.63 L 313.67 0.63 L 331.94 48.02 L 323.05 48.02 L 318.71 35.63 L 301.63 35.63 L 297.15 48.02 L 288.89 48.02 Z M 303.87 29.47 L 316.54 29.47 Q 314.3 23.17 312.69 18.025 Q 311.08 12.88 310.24 9.94 Q 309.26 13.09 307.65 18.2 Q 306.04 23.31 303.87 29.47 Z" id="8" vector-effect="non-scaling-stroke"/>
    <path d="M 363.86 3.71 L 360.43 9.73 L 359.52 9.24 Q 358.61 8.75 357.14 8.12 Q 355.67 7.49 353.92 7 Q 352.17 6.51 350.56 6.51 Q 348.04 6.51 346.185 7.7 Q 344.33 8.89 344.33 11.41 Q 344.33 14.56 346.36 16.555 Q 348.39 18.55 352.73 20.23 Q 355.53 21.35 357.735 22.575 Q 359.94 23.8 361.48 25.41 Q 363.02 27.02 363.825 29.12 Q 364.63 31.22 364.63 34.16 Q 364.63 36.82 363.615 39.41 Q 362.6 42 360.605 43.995 Q 358.61 45.99 355.67 47.215 Q 352.73 48.44 348.88 48.44 Q 346.15 48.44 343.7 47.88 Q 341.25 47.32 339.255 46.585 Q 337.26 45.85 335.825 45.08 Q 334.39 44.31 333.69 43.89 L 336.63 37.45 L 337.89 38.15 Q 339.15 38.85 340.97 39.69 Q 342.79 40.53 344.82 41.23 Q 346.85 41.93 348.32 41.93 Q 352.03 41.93 353.85 40.11 Q 355.67 38.29 355.67 35 Q 355.67 33.46 355.18 32.305 Q 354.69 31.15 353.78 30.31 Q 352.87 29.47 351.575 28.805 Q 350.28 28.14 348.67 27.51 Q 345.52 26.18 343.035 24.85 Q 340.55 23.52 338.8 21.805 Q 337.05 20.09 336.14 17.885 Q 335.23 15.68 335.23 12.6 Q 335.23 10.01 336.35 7.735 Q 337.47 5.46 339.43 3.745 Q 341.39 2.03 344.12 1.015 Q 346.85 0 350.14 0 Q 352.59 0 354.83 0.455 Q 357.07 0.91 358.925 1.505 Q 360.78 2.1 362.075 2.73 Q 363.37 3.36 363.86 3.71 Z" id="9" vector-effect="non-scaling-stroke"/>
    <path d="M 391.72 23.38 L 408.94 48.02 L 399.28 48.02 L 381.22 22.4 L 381.22 21.91 Q 387.66 19.53 391.195 14.105 Q 394.73 8.68 396.62 0.63 L 404.81 0.63 Q 403.69 5.88 402.325 9.555 Q 400.96 13.23 399.35 15.785 Q 397.74 18.34 395.815 20.125 Q 393.89 21.91 391.72 23.38 Z M 371.98 48.02 L 371.98 0.63 L 380.31 0.63 L 380.31 48.02 L 371.98 48.02 Z" id="10" vector-effect="non-scaling-stroke"/>
    <path d="M 458.57 3.71 L 455.14 9.73 L 454.23 9.24 Q 453.32 8.75 451.85 8.12 Q 450.38 7.49 448.63 7 Q 446.88 6.51 445.27 6.51 Q 442.75 6.51 440.895 7.7 Q 439.04 8.89 439.04 11.41 Q 439.04 14.56 441.07 16.555 Q 443.1 18.55 447.44 20.23 Q 450.24 21.35 452.445 22.575 Q 454.65 23.8 456.19 25.41 Q 457.73 27.02 458.535 29.12 Q 459.34 31.22 459.34 34.16 Q 459.34 36.82 458.325 39.41 Q 457.31 42 455.315 43.995 Q 453.32 45.99 450.38 47.215 Q 447.44 48.44 443.59 48.44 Q 440.86 48.44 438.41 47.88 Q 435.96 47.32 433.965 46.585 Q 431.97 45.85 430.535 45.08 Q 429.1 44.31 428.4 43.89 L 431.34 37.45 L 432.6 38.15 Q 433.86 38.85 435.68 39.69 Q 437.5 40.53 439.53 41.23 Q 441.56 41.93 443.03 41.93 Q 446.74 41.93 448.56 40.11 Q 450.38 38.29 450.38 35 Q 450.38 33.46 449.89 32.305 Q 449.4 31.15 448.49 30.31 Q 447.58 29.47 446.285 28.805 Q 444.99 28.14 443.38 27.51 Q 440.23 26.18 437.745 24.85 Q 435.26 23.52 433.51 21.805 Q 431.76 20.09 430.85 17.885 Q 429.94 15.68 429.94 12.6 Q 429.94 10.01 431.06 7.735 Q 432.18 5.46 434.14 3.745 Q 436.1 2.03 438.83 1.015 Q 441.56 0 444.85 0 Q 447.3 0 449.54 0.455 Q 451.78 0.91 453.635 1.505 Q 455.49 2.1 456.785 2.73 Q 458.08 3.36 458.57 3.71 Z" id="12" vector-effect="non-scaling-stroke"/>
    <path d="M 497 5.04 L 492.73 10.15 Q 491.05 8.33 489.195 7.385 Q 487.34 6.44 484.89 6.44 Q 481.88 6.44 479.815 7.805 Q 477.75 9.17 476.49 11.585 Q 475.23 14 474.67 17.22 Q 474.11 20.44 474.11 24.15 Q 474.11 27.86 474.635 31.08 Q 475.16 34.3 476.455 36.75 Q 477.75 39.2 479.955 40.6 Q 482.16 42 485.52 42 Q 487.13 42 488.6 41.72 Q 490.07 41.44 491.295 41.125 Q 492.52 40.81 493.325 40.53 Q 494.13 40.25 494.34 40.18 L 496.3 46.06 L 495.39 46.41 Q 494.48 46.76 492.835 47.215 Q 491.19 47.67 488.915 48.055 Q 486.64 48.44 483.91 48.44 Q 474.53 48.44 469.805 42.455 Q 465.08 36.47 465.08 24.92 Q 465.08 19.39 466.34 14.805 Q 467.6 10.22 470.155 6.93 Q 472.71 3.64 476.595 1.82 Q 480.48 0 485.73 0 Q 489.93 0 492.625 1.54 Q 495.32 3.08 497 5.04 Z" id="13" vector-effect="non-scaling-stroke"/>
    <path d="M 531.16 48.02 L 531.16 26.46 L 511.63 26.46 L 511.63 48.02 L 503.3 48.02 L 503.3 0.63 L 511.63 0.63 L 511.63 20.37 L 531.16 20.37 L 531.16 0.63 L 539.49 0.63 L 539.49 48.02 L 531.16 48.02 Z" id="14" vector-effect="non-scaling-stroke"/>
    <path d="M 549.29 48.02 L 549.29 0.63 L 577.43 0.63 L 577.43 6.93 L 557.62 6.93 L 557.62 20.16 L 573.93 20.16 L 572.88 26.53 L 557.62 26.53 L 557.62 41.72 L 578.48 41.72 L 578.48 48.02 L 549.29 48.02 Z" id="15" vector-effect="non-scaling-stroke"/>
    <path d="M 585.2 48.02 L 585.2 0.63 Q 585.69 0.63 587.3 0.595 Q 588.91 0.56 590.94 0.56 Q 592.97 0.56 595.14 0.525 Q 597.31 0.49 598.92 0.49 Q 610.82 0.49 616.56 6.405 Q 622.3 12.32 622.3 24.01 Q 622.3 35.7 616.42 41.93 Q 610.54 48.16 598.01 48.16 Q 595.84 48.16 593.775 48.125 Q 591.71 48.09 589.995 48.09 Q 588.28 48.09 587.02 48.055 Q 585.76 48.02 585.2 48.02 Z M 593.53 6.79 L 593.53 41.86 Q 594.3 41.93 595.525 41.93 L 599.06 41.93 Q 606.41 41.93 609.84 37.625 Q 613.27 33.32 613.27 24.78 Q 613.27 20.72 612.465 17.395 Q 611.66 14.07 609.805 11.69 Q 607.95 9.31 605.045 8.015 Q 602.14 6.72 597.94 6.72 Q 596.33 6.72 595.245 6.755 Q 594.16 6.79 593.53 6.79 Z" id="16" vector-effect="non-scaling-stroke"/>
    <path d="M 629.51 0.63 L 637.77 0.63 L 637.77 29.96 Q 637.77 36.47 640.5 39.235 Q 643.23 42 647.92 42 Q 652.68 42 654.955 38.815 Q 657.23 35.63 657.23 29.96 L 657.23 0.63 L 665.56 0.63 L 665.56 30.59 Q 665.56 34.23 664.615 37.45 Q 663.67 40.67 661.5 43.12 Q 659.33 45.57 655.76 47.005 Q 652.19 48.44 647.01 48.44 Q 642.04 48.44 638.715 47.005 Q 635.39 45.57 633.325 43.12 Q 631.26 40.67 630.385 37.45 Q 629.51 34.23 629.51 30.59 L 629.51 0.63 Z" id="17" vector-effect="non-scaling-stroke"/>
    <path d="M 674.66 48.02 L 674.66 0.63 L 682.99 0.63 L 682.99 41.72 L 700.7 41.72 L 700.7 48.02 L 674.66 48.02 Z" id="18" vector-effect="non-scaling-stroke"/>
    <path d="M 705.6 48.02 L 705.6 0.63 L 733.74 0.63 L 733.74 6.93 L 713.93 6.93 L 713.93 20.16 L 730.24 20.16 L 729.19 26.53 L 713.93 26.53 L 713.93 41.72 L 734.79 41.72 L 734.79 48.02 L 705.6 48.02 Z" id="19" vector-effect="non-scaling-stroke"/>
    <path d="M 741.51 48.02 L 741.51 0.63 Q 742 0.63 743.75 0.595 Q 745.5 0.56 747.67 0.56 Q 749.84 0.56 752.01 0.525 Q 754.18 0.49 755.58 0.49 Q 764.26 0.49 768.25 3.885 Q 772.24 7.28 772.24 13.44 Q 772.24 17.5 770.21 20.65 Q 768.18 23.8 763.56 25.2 Q 765.52 26.32 767.06 28.28 Q 768.6 30.24 770.07 33.075 Q 771.54 35.91 773.08 39.655 Q 774.62 43.4 776.65 48.02 L 767.62 48.02 Q 765.24 42.49 763.455 38.57 Q 761.67 34.65 759.99 32.2 Q 758.31 29.75 756.385 28.63 Q 754.46 27.51 751.87 27.51 L 749.84 27.51 L 749.84 48.02 L 741.51 48.02 Z M 749.84 6.44 L 749.84 21.42 L 755.23 21.42 Q 759.15 21.42 761.285 19.67 Q 763.42 17.92 763.42 14.49 Q 763.42 12.95 763 11.48 Q 762.58 10.01 761.565 8.89 Q 760.55 7.77 758.835 7.105 Q 757.12 6.44 754.53 6.44 L 749.84 6.44 Z" id="20" vector-effect="non-scaling-stroke"/>
  </g>
</svg>
